<?xml version="1.0" encoding="iso-8859-1"?>
<!-- Uploaded to: SVG Repo, www.svgrepo.com, Generator: SVG Repo Mixer Tools -->
<svg version="1.1" id="Layer_1" xmlns="http://www.w3.org/2000/svg" xmlns:xlink="http://www.w3.org/1999/xlink" 
	 viewBox="0 0 512 512" xml:space="preserve">
<g>
	<polygon style="fill:#CBBBA0;" points="384,368 288,368 303.999,24 367.999,24 	"/>
	<polygon style="fill:#CBBBA0;" points="223.999,351.999 120,351.999 144,96 208,96 	"/>
</g>
<g>
	<rect x="143.998" y="127.999" style="fill:#BE1622;" width="63.994" height="32"/>
	<rect x="304.005" y="56" style="fill:#BE1622;" width="63.994" height="32"/>
	<rect x="16" y="456.002" style="fill:#BE1622;" width="48" height="32"/>
	<rect x="208.003" y="456.002" style="fill:#BE1622;" width="287.996" height="32"/>
</g>
<polygon style="fill:#FAC15C;" points="495.999,456 16,456 16,336 175.999,255.999 175.999,336 336,255.999 336,336 
	495.999,255.999 "/>
<rect x="63.994" y="416.005" style="fill:#FFFFFF;" width="143.998" height="72"/>
<rect x="56" y="384.165" style="fill:#1D1D1B;" width="159.996" height="15.664"/>
<g>
	<rect x="248.166" y="383.998" style="fill:#FFFFFF;" width="15.664" height="48"/>
	<rect x="296.172" y="383.998" style="fill:#FFFFFF;" width="15.664" height="48"/>
	<rect x="344.168" y="383.998" style="fill:#FFFFFF;" width="15.664" height="48"/>
	<rect x="392.164" y="383.998" style="fill:#FFFFFF;" width="15.664" height="48"/>
	<rect x="440.17" y="383.998" style="fill:#FFFFFF;" width="15.664" height="48"/>
</g>
<path style="fill:#1D1D1B;" d="M503.832,480.168V243.327l-112.674,56.337L375.408,16.168h-78.767l-16.177,258.843l-49.516,24.758
	L215.273,88.168h-78.455l-16.242,186.787L8.167,331.159v149.008H0v15.664h512v-15.664L503.832,480.168L503.832,480.168z
	 M200.167,480.168H71.832v-56.336h128.335V480.168z M215.832,463.832h272.335v16.336H215.832V463.832z M363.276,80.167h-54.939
	l1.021-16.336h53.01L363.276,80.167z M360.59,31.832l0.907,16.336h-51.161l1.021-16.336H360.59z M307.358,95.832h56.789
	l11.748,211.464l-32.062,16.031v-80l-47.167,23.583L307.358,95.832z M204.307,152.167h-57.33l1.42-16.336h54.699L204.307,152.167z
	 M200.726,103.832l1.21,16.336h-52.177l1.42-16.336H200.726z M145.614,167.832h59.853l10.334,139.51l-31.969,15.985v-80
	l-46.817,23.409L145.614,167.832z M168.167,268.673v80l160-80v80l160.001-80v179.494H215.832v-40H56.167v40H23.832V340.841
	L168.167,268.673z M23.832,463.832h32.336v16.336H23.832V463.832z"/>
</svg>